<svg width="475" height="140" viewBox="0 0 475 140" fill="none" xmlns="http://www.w3.org/2000/svg">
<path d="M254.865 103.651C250.709 103.651 247.081 102.907 243.979 101.418C240.94 99.9297 238.583 97.9759 236.908 95.5568C235.234 93.0758 234.241 90.4087 233.931 87.5555H235.792C236.102 89.7264 236.877 91.8973 238.118 94.0682C239.42 96.2391 241.436 98.0999 244.165 99.6506C246.957 101.201 250.523 101.977 254.865 101.977C258.338 101.977 261.409 101.325 264.076 100.023C266.743 98.6582 268.79 96.8594 270.216 94.6265C271.643 92.3935 272.356 89.9125 272.356 87.1833C272.356 83.6478 271.55 80.8566 269.937 78.8098C268.325 76.7009 266.309 75.1502 263.89 74.1578C261.533 73.1654 258.338 72.1419 254.307 71.0875C250.089 69.971 246.708 68.8545 244.165 67.7381C241.622 66.6216 239.451 64.9159 237.653 62.6209C235.916 60.2639 235.048 57.1006 235.048 53.1309C235.048 50.2777 235.823 47.6106 237.374 45.1295C238.986 42.5864 241.25 40.5706 244.165 39.0819C247.143 37.5933 250.523 36.849 254.307 36.849C258.152 36.849 261.471 37.5313 264.262 38.8959C267.053 40.2604 269.224 41.9972 270.775 44.1061C272.387 46.1529 273.442 48.3239 273.938 50.6188H272.077C271.643 48.8201 270.744 46.9903 269.379 45.1295C268.015 43.2687 266.061 41.7181 263.518 40.4775C260.975 39.175 257.904 38.5237 254.307 38.5237C251.143 38.5237 248.228 39.144 245.561 40.3845C242.956 41.563 240.847 43.2687 239.234 45.5017C237.684 47.6726 236.908 50.2157 236.908 53.1309C236.908 56.7284 237.715 59.6126 239.327 61.7836C241.002 63.8924 243.049 65.4741 245.468 66.5286C247.887 67.521 251.112 68.5444 255.144 69.5989C259.362 70.7153 262.711 71.8318 265.192 72.9483C267.735 74.0027 269.875 75.6774 271.612 77.9724C273.349 80.2053 274.217 83.2757 274.217 87.1833C274.217 89.9125 273.473 92.5486 271.984 95.0917C270.558 97.6347 268.387 99.7126 265.471 101.325C262.556 102.876 259.021 103.651 254.865 103.651ZM324.285 55.5499C324.285 61.5665 322.517 66.0634 318.981 69.0406C315.446 72.0179 310.236 73.5065 303.351 73.5065H288.651V103H286.79V37.5003H303.351C310.546 37.5003 315.818 39.0819 319.168 42.2453C322.579 45.4086 324.285 49.8435 324.285 55.5499ZM303.351 71.5527C310.05 71.5527 314.888 70.1571 317.865 67.3659C320.904 64.5747 322.424 60.6361 322.424 55.5499C322.424 50.2157 320.935 46.1839 317.958 43.4548C314.981 40.7256 310.112 39.3611 303.351 39.3611H288.651V71.5527H303.351ZM347.481 38.0585V103H334.456V38.0585H347.481ZM357.187 70.4362C357.187 64.0475 358.614 58.3411 361.467 53.317C364.382 48.2308 368.321 44.2921 373.283 41.501C378.307 38.6478 383.921 37.2212 390.123 37.2212C397.38 37.2212 403.738 39.0819 409.196 42.8035C414.655 46.5251 418.469 51.6733 420.64 58.2481H405.661C404.172 55.1467 402.063 52.8208 399.334 51.2701C396.667 49.7194 393.566 48.9441 390.03 48.9441C386.246 48.9441 382.866 49.8435 379.889 51.6423C376.974 53.379 374.679 55.86 373.004 59.0854C371.391 62.3108 370.585 66.0944 370.585 70.4362C370.585 74.716 371.391 78.4996 373.004 81.787C374.679 85.0124 376.974 87.5244 379.889 89.3232C382.866 91.0599 386.246 91.9283 390.03 91.9283C393.566 91.9283 396.667 91.153 399.334 89.6023C402.063 87.9896 404.172 85.6326 405.661 82.5313H420.64C418.469 89.1681 414.655 94.3473 409.196 98.0689C403.8 101.728 397.442 103.558 390.123 103.558C383.921 103.558 378.307 102.163 373.283 99.3715C368.321 96.5183 364.382 92.5796 361.467 87.5555C358.614 82.5313 357.187 76.8249 357.187 70.4362ZM444.791 48.572V64.8539H466.655V75.1812H444.791V92.3935H469.446V103H431.766V37.9655H469.446V48.572H444.791Z" fill="white"/>
<path d="M51.7334 42.3333L36.1334 69.6667L51.7334 97L67.3334 124.333H99.4667H131.6L147.2 97L162.933 69.6667L147.2 42.3333L131.6 15H99.4667H67.3334L51.7334 42.3333ZM125.733 25H73.3333L70.8333 19H129.6L125.733 25ZM132.133 51.2667L142.667 69.6667L132.133 87.9333L121.6 106.333H77.3333L67.0667 88.3333L56.4 69.5333L67.0667 50.8667L77.8333 33H121.6L132.133 51.2667ZM129.6 120.333H70.8333L73.8333 113.667H125.333L129.6 120.333Z" fill="white"/>
<path d="M0 69.6667L28.8 117.667L37.3333 99.6667L20.1333 69.5334L37.3333 36.6L27.8 20.6667L0 69.6667Z" fill="white"/>
<path d="M160.933 38.3334L178.933 69.6667L160.933 100.867L171.467 117.667L199.067 69.6667L171.467 21.6667L160.933 38.3334Z" fill="white"/>
</svg>
