<svg width="484" height="140" viewBox="0 0 484 140" fill="none" xmlns="http://www.w3.org/2000/svg">
<path d="M256.168 103.651C251.888 103.651 248.104 102.907 244.817 101.418C241.591 99.9297 239.048 97.8518 237.187 95.1847C235.327 92.5176 234.334 89.5403 234.21 86.2529H241.095C241.405 89.4162 242.801 92.2074 245.282 94.6265C247.763 96.9835 251.391 98.162 256.168 98.162C260.571 98.162 264.045 97.0455 266.588 94.8125C269.193 92.5176 270.496 89.6333 270.496 86.1599C270.496 83.3687 269.782 81.1357 268.356 79.461C266.929 77.7243 265.161 76.4528 263.052 75.6464C260.944 74.7781 258.028 73.8477 254.307 72.8552C249.965 71.6767 246.522 70.5293 243.979 69.4128C241.436 68.2963 239.265 66.5596 237.467 64.2026C235.668 61.8456 234.768 58.6512 234.768 54.6195C234.768 51.2701 235.637 48.2928 237.374 45.6877C239.11 43.0206 241.56 40.9427 244.724 39.4541C247.887 37.9655 251.516 37.2212 255.609 37.2212C261.626 37.2212 266.464 38.7098 270.123 41.687C273.845 44.6023 275.985 48.3859 276.543 53.0379H269.472C269.038 50.3707 267.58 48.0137 265.099 45.9669C262.618 43.858 259.269 42.8035 255.051 42.8035C251.143 42.8035 247.887 43.858 245.282 45.9669C242.677 48.0137 241.374 50.8359 241.374 54.4334C241.374 57.1626 242.088 59.3645 243.514 61.0392C244.941 62.7139 246.708 63.9855 248.817 64.8539C250.988 65.7222 253.904 66.6526 257.563 67.645C261.781 68.8235 265.192 70.002 267.797 71.1805C270.403 72.297 272.604 74.0337 274.403 76.3907C276.202 78.7477 277.101 81.9111 277.101 85.8808C277.101 88.92 276.295 91.8043 274.682 94.5334C273.07 97.2626 270.682 99.4645 267.518 101.139C264.355 102.814 260.571 103.651 256.168 103.651ZM331.275 56.6664C331.275 62.2487 329.445 66.7457 325.786 70.1571C322.126 73.5685 316.637 75.2743 309.318 75.2743H296.199V103H289.686V37.9655H309.318C316.575 37.9655 322.033 39.6712 325.693 43.0826C329.414 46.4941 331.275 51.022 331.275 56.6664ZM309.318 69.6919C319.49 69.6919 324.576 65.3501 324.576 56.6664C324.576 52.3245 323.367 49.0372 320.948 46.8042C318.529 44.5713 314.652 43.4548 309.318 43.4548H296.199V69.6919H309.318ZM356.438 37.6864V103H340.528V37.6864H356.438ZM365.269 70.2501C365.269 63.7994 366.665 58.062 369.456 53.0379C372.247 47.9517 376.124 44.013 381.086 41.2218C386.11 38.3686 391.785 36.942 398.112 36.942C405.865 36.942 412.502 38.9889 418.023 43.0826C423.543 47.1764 427.233 52.7587 429.094 59.8297H411.603C410.3 57.1006 408.44 55.0227 406.021 53.5961C403.664 52.1695 400.965 51.4562 397.926 51.4562C393.026 51.4562 389.056 53.1619 386.017 56.5733C382.978 59.9848 381.458 64.5437 381.458 70.2501C381.458 75.9566 382.978 80.5155 386.017 83.9269C389.056 87.3384 393.026 89.0441 397.926 89.0441C400.965 89.0441 403.664 88.3308 406.021 86.9042C408.44 85.4776 410.3 83.3997 411.603 80.6705H429.094C427.233 87.7415 423.543 93.3239 418.023 97.4176C412.502 101.449 405.865 103.465 398.112 103.465C391.785 103.465 386.11 102.07 381.086 99.2784C376.124 96.4252 372.247 92.4865 369.456 87.4624C366.665 82.4383 365.269 76.7009 365.269 70.2501ZM454.747 50.4327V63.6443H476.053V75.9255H454.747V90.2536H478.844V103H438.837V37.6864H478.844V50.4327H454.747Z" fill="#222222"/>
<path d="M51.7334 42.3333L36.1334 69.6666L51.7334 97L67.3334 124.333H99.4667H131.6L147.2 97L162.933 69.6666L147.2 42.3333L131.6 15H99.4667H67.3334L51.7334 42.3333ZM125.733 25H73.3333L70.8333 19H129.6L125.733 25ZM132.133 51.2666L142.667 69.6666L132.133 87.9333L121.6 106.333H77.3333L67.0667 88.3333L56.4 69.5333L67.0667 50.8666L77.8333 33H121.6L132.133 51.2666ZM129.6 120.333H70.8333L73.8333 113.667H125.333L129.6 120.333Z" fill="#222222"/>
<path d="M0 69.6667L28.8 117.667L37.3333 99.6667L20.1333 69.5334L37.3333 36.6L27.8 20.6667L0 69.6667Z" fill="#222222"/>
<path d="M160.933 38.3334L178.933 69.6667L160.933 100.867L171.467 117.667L199.067 69.6667L171.467 21.6667L160.933 38.3334Z" fill="#222222"/>
</svg>
